{"title":"Top Secret! (1984) 720p AC3 (5.1) HDTV uncut","uid":8722638,"size":2426795701,"categoryP":"video","categoryS":"hd___movies","magnet":"?xt=urn:btih:48266d0624b96ca915bd958946d4c3b07de0621c&amp;dn=Top+Secret%21+%281984%29+720p+AC3+%285.1%29+HDTV+uncut&amp;tr=udp%3A%2F%2Ftracker.openbittorrent.com%3A80&amp;tr=udp%3A%2F%2Fopen.demonii.com%3A1337&amp;tr=udp%3A%2F%2Ftracker.coppersurfer.tk%3A6969&amp;tr=udp%3A%2F%2Fexodus.desync.com%3A6969","seeders":0,"leechers":1,"uploader":"nabsltd","files":2,"time":1374449047,"description":"This is my own rip.\n\nThere are other HDTV-sourced torrents of this movie, but the best is missing about 1 minute of footage (little cuts throughout the movie), and has 2-channel audio.\n\nThere is a small logo for 20 seconds every 30 minutes.\n\nGeneral\nUnique ID                        : 213850989338518385565872842558163566106 (0xA0E233D0830AA0F5A8C1417E3482BE1A)\nFormat                           : Matroska\nFormat version                   : Version 4 / Version 2\nFile size                        : 2.24 GiB\nDuration                         : 1h 30mn\nOverall bit rate mode            : Variable\nOverall bit rate                 : 3 554 Kbps\nEncoded date                     : UTC 2013-07-21 19:55:45\nWriting application              : mkvmerge v6.3.0 ('You can't stop me!') built on Jun 28 2013 20:09:41\nWriting library                  : libebml v1.3.0 + libmatroska v1.4.0\n\nVideo\nID                               : 1\nFormat                           : AVC\nFormat/Info                      : Advanced Video Codec\nFormat profile                   : &lt;a class=&quot;__cf_email__&quot; href=&quot;/cdn-cgi/l/email-protection&quot; data-cfemail=&quot;8bc3e2ece3cbc7bfa5ba&quot;&gt;[email&amp;#160;protected]&lt;/a&gt;&lt;script cf-hash='f9e31' type=&quot;text/javascript&quot;&gt;\n/* &lt;![CDATA[ */!function(){try{var t=&quot;currentScript&quot;in document?document.currentScript:function(){for(var t=document.getElementsByTagName(&quot;script&quot;),e=t.length;e--;)if(t[e].getAttribute(&quot;cf-hash&quot;))return t[e]}();if(t&amp;&amp;t.previousSibling){var e,r,n,i,c=t.previousSibling,a=c.getAttribute(&quot;data-cfemail&quot;);if(a){for(e=&quot;&quot;,r=parseInt(a.substr(0,2),16),n=2;a.length-n;n+=2)i=parseInt(a.substr(n,2),16)^r,e+=String.fromCharCode(i);e=document.createTextNode(e),c.parentNode.replaceChild(e,c)}}}catch(u){}}();/* ]]&gt; */&lt;/script&gt;\nFormat settings, CABAC           : Yes\nFormat settings, ReFrames        : 7 frames\nCodec ID                         : V_MPEG4/ISO/AVC\nDuration                         : 1h 30mn\nBit rate mode                    : Variable\nBit rate                         : 3 099 Kbps\nMaximum bit rate                 : 15.4 Mbps\nWidth                            : 1 280 pixels\nHeight                           : 692 pixels\nDisplay aspect ratio             : 1.850\nFrame rate                       : 23.976 fps\nColor space                      : YUV\nChroma subsampling               : 4:2:0\nBit depth                        : 8 bits\nScan type                        : Progressive\nBits/(Pixel*Frame)               : 0.146\nStream size                      : 1.95 GiB (87%)\nWriting library                  : x264 core 135 r2345 f0c1c53\nLanguage                         : English\nDefault                          : Yes\nForced                           : No\n\nAudio\nID                               : 2\nFormat                           : AC-3\nFormat/Info                      : Audio Coding 3\nMode extension                   : CM (complete main)\nCodec ID                         : A_AC3\nDuration                         : 1h 30mn\nBit rate mode                    : Constant\nBit rate                         : 384 Kbps\nChannel(s)                       : 6 channels\nChannel positions                : Front: L C R, Side: L R, LFE\nSampling rate                    : 48.0 KHz\nBit depth                        : 16 bits\nCompression mode                 : Lossy\nStream size                      : 247 MiB (11%)\nLanguage                         : English\nDefault                          : Yes\nForced                           : No\n\nMenu\n00:00:00.000                     : en:Trouble on the Berlin Express\n00:01:24.293                     : en:Global Domination\n00:03:13.674                     : en:Skeet Surfing\n00:06:17.002                     : en:Nick Rivers: Ambassador\n00:09:59.933                     : en:The Cultural Festival\n00:11:38.114                     : en:Party Tricks\n00:13:34.397                     : en:East German National Anthem\n00:14:33.998                     : en:Table for Two\n00:16:46.964                     : en:Folk Dancing\n00:22:13.415                     : en:Das Tutti Frutti\n00:27:29.565                     : en:The Nutcracker Suite\n00:30:31.580                     : en:Lengthy Incarceration\n00:35:59.866                     : en:Escape Attempts\n00:37:15.714                     : en:Dr. Paul Flammond\n00:39:20.400                     : en:Nick Rivers in Concert\n00:44:10.189                     : en:Pigeon Park\n00:46:35.084                     : en:The Swedish Bookstore\n00:48:21.690                     : en:Childhood Stories/&quot;Are You Lonesome Tonight?&quot;\n00:53:16.985                     : en:Meeting With Some Resistance\n00:54:52.623                     : en:The Torch\n00:59:50.420                     : en:Nice Shooting\n01:02:24.157                     : en:Der Pizza Haus/&quot;Straighten the Rug&quot;\n01:08:01.411                     : en:One of the Herd\n01:14:06.047                     : en:Breaking Into Flugeldorf Prison\n01:16:04.685                     : en:Double Cross\n01:20:32.494                     : en:Underwater Bar Room Brawl\n01:23:05.461                     : en:Romantic Finale\n01:25:54.858                     : en:End Credits/&quot;Spend This Night With Me&quot;\n","torrent":{"xt":"urn:btih:48266d0624b96ca915bd958946d4c3b07de0621c","amp;dn":"Top+Secret%21+%281984%29+720p+AC3+%285.1%29+HDTV+uncut","amp;tr":["udp%3A%2F%2Ftracker.openbittorrent.com%3A80","udp%3A%2F%2Fopen.demonii.com%3A1337","udp%3A%2F%2Ftracker.coppersurfer.tk%3A6969","udp%3A%2F%2Fexodus.desync.com%3A6969"],"infoHash":"48266d0624b96ca915bd958946d4c3b07de0621c","infoHashBuffer":{"type":"Buffer","data":[72,38,109,6,36,185,108,169,21,189,149,137,70,212,195,176,125,224,98,28]},"announce":[],"urlList":[]}}